<svg width="255" height="255" viewBox="0 0 255 255" fill="none" xmlns="http://www.w3.org/2000/svg">
<circle cx="127.5" cy="127.5" r="127.5" fill="#222127"/>
<rect x="53" y="113" width="95" height="90" rx="17" fill="#CAC4D0"/>
<rect x="53" y="103" width="22" height="79" fill="#CAC4D0"/>
<rect x="110" y="180" width="22" height="31" transform="rotate(90 110 180)" fill="#CAC4D0"/>
<rect x="54" y="113.488" width="130.852" height="70.7641" transform="rotate(-30.9 54 113.488)" fill="#CAC4D0"/>
<rect x="197.67" y="109.867" width="71.4391" height="4.70781" transform="rotate(-117.82 197.67 109.867)" fill="#CAC4D0"/>
<path d="M150.11 43.0648C149.158 39.9672 152.092 37.0823 155.173 38.0863L171.477 43.3988C172.714 43.8021 173.678 44.7825 174.061 46.0268L179.099 62.4173C180.051 65.5149 177.117 68.3997 174.036 67.3957L157.733 62.0832C156.495 61.6799 155.531 60.6996 155.148 59.4553L150.11 43.0648Z" fill="#CAC4D0"/>
<path d="M131.592 128.065L179.823 202.852L83.5352 202.964L131.592 128.065Z" fill="#CAC4D0"/>
<path d="M50.4339 56.8377C50.3447 54.7573 53.0977 53.9426 54.155 55.7364L83.0119 104.694C83.6725 105.815 83.104 107.259 81.8564 107.628L55.4338 115.447C54.1862 115.816 52.9238 114.915 52.8681 113.615L50.4339 56.8377Z" fill="#CAC4D0"/>
<path d="M146.702 88.9945C147.649 89.682 147.806 91.0319 147.042 91.9183L122.57 120.319C122.145 120.813 121.507 121.068 120.859 121.004L74.1416 116.405C73.2051 116.313 72.4596 115.58 72.3509 114.646L68.789 84.0109C68.6803 83.0763 69.2379 82.1922 70.1282 81.8876L114.544 66.692C115.16 66.4813 115.84 66.5835 116.367 66.966L146.702 88.9945Z" fill="#CAC4D0"/>
<path d="M211.039 101.198C211.065 104.477 207.351 106.393 204.694 104.471L189.417 93.4177C188.387 92.6722 187.772 91.4811 187.762 90.2093L187.61 71.3537C187.583 68.0743 191.297 66.1583 193.954 68.0807L209.231 79.1338C210.262 79.8793 210.876 81.0704 210.886 82.3422L211.039 101.198Z" fill="#222127"/>
<path d="M191.983 100.502C193.885 98.7886 196.774 98.7886 198.676 100.502L207.304 108.273C210.708 111.339 208.539 116.988 203.958 116.988H186.702C182.12 116.988 179.951 111.339 183.355 108.273L191.983 100.502Z" fill="#CAC4D0"/>
<path d="M131.028 94.5767C130.68 92.456 129.592 90.4922 127.866 88.8677C126.14 87.2433 123.831 86.011 121.154 85.2854C118.477 84.5599 115.519 84.3646 112.556 84.7178C109.592 85.071 106.719 85.9612 104.203 87.3056C101.688 88.65 99.6113 90.4049 98.1671 92.4073C96.723 94.4096 95.958 96.5943 95.9433 98.7582C95.9287 100.922 96.6648 102.995 98.0833 104.784C99.5017 106.573 101.556 108.02 104.056 108.991L109.874 101.913C108.907 101.538 108.112 100.978 107.563 100.286C107.014 99.5934 106.729 98.7914 106.735 97.954C106.741 97.1167 107.037 96.2714 107.596 95.4966C108.154 94.7218 108.958 94.0427 109.931 93.5225C110.905 93.0023 112.016 92.6579 113.163 92.5212C114.31 92.3845 115.454 92.4601 116.49 92.7408C117.526 93.0216 118.419 93.4984 119.087 94.127C119.755 94.7556 120.176 95.5155 120.311 96.336L131.028 94.5767Z" fill="#222127" fill-opacity="0.85098"/>
</svg>
